<svg xmlns="http://www.w3.org/2000/svg" width="301" height="47.95" viewBox="0 0 301 47.95">
  <g id="Grupo_4522" data-name="Grupo 4522" transform="translate(-1058 -57.501)">
    <g id="Grupo_4521" data-name="Grupo 4521" transform="translate(1058 57.501)">
      <g id="Grupo_4510" data-name="Grupo 4510" transform="translate(67.907)">
        <path id="Trazado_14526" data-name="Trazado 14526" d="M1257.929,62.844a19.857,19.857,0,0,0-13.99-5.11h-10.706V93.568h12.391a18.027,18.027,0,0,0,17.844-17.895A16.83,16.83,0,0,0,1257.929,62.844Zm-3.235,21.866a12.175,12.175,0,0,1-9.247,4.015h-7.294V62.58h6.319a14.113,14.113,0,0,1,9.695,3.659,12.033,12.033,0,0,1,4.205,8.974A12.722,12.722,0,0,1,1254.694,84.709Z" transform="translate(-1233.233 -57.644)" fill="#878787"/>
        <path id="Trazado_14527" data-name="Trazado 14527" d="M1329.714,78.692a12.932,12.932,0,0,0-10.176,3.964,13.774,13.774,0,0,0,.092,19.776,13.086,13.086,0,0,0,9.353,3.919h.178a13.592,13.592,0,0,0,7.766-2.536,13.381,13.381,0,0,0,4.971-6.734l.366-1.064h-5.135l-.217.458a7.95,7.95,0,0,1-7.648,4.969,8.6,8.6,0,0,1-6-2.195,8.226,8.226,0,0,1-2.753-4.754h22.04V91.913a12.676,12.676,0,0,0-3.731-8.894A13.573,13.573,0,0,0,1329.714,78.692Zm7.757,11.159H1320.6a8.362,8.362,0,0,1,2.813-4.26,8.81,8.81,0,0,1,14.055,4.26Z" transform="translate(-1283.556 -70.465)" fill="#878787"/>
        <path id="Trazado_14528" data-name="Trazado 14528" d="M1402.006,79.072a11.583,11.583,0,0,0-8.608,3.538,12.076,12.076,0,0,0-3.427,8.755v15.272h5.052V91.011a7.064,7.064,0,0,1,6.984-7,6.555,6.555,0,0,1,4.829,2.071,6.708,6.708,0,0,1,2.11,4.932v15.626H1414V91.365a12.081,12.081,0,0,0-3.427-8.755A11.538,11.538,0,0,0,1402.006,79.072Z" transform="translate(-1329.232 -70.713)" fill="#878787"/>
        <path id="Trazado_14529" data-name="Trazado 14529" d="M1462.883,57.618h-4.939v27.1c0,7.021,5.338,8.5,9.816,8.5h.8V88.865h-.8c-3.327,0-4.877-1.5-4.877-4.716V70.959h5.678V66.267h-5.678Z" transform="translate(-1370.864 -57.573)" fill="#878787"/>
        <rect id="Rectángulo_4743" data-name="Rectángulo 4743" width="4.965" height="7.559" transform="translate(100.144)" fill="#878787"/>
        <rect id="Rectángulo_4744" data-name="Rectángulo 4744" width="4.965" height="26.986" transform="translate(100.144 8.938)" fill="#878787"/>
      </g>
      <g id="Grupo_4511" data-name="Grupo 4511" transform="translate(113.792 39.017)">
        <path id="Trazado_14530" data-name="Trazado 14530" d="M1351.9,160.977a4.244,4.244,0,0,1,.77-1.429,3.756,3.756,0,0,1,1.276-.993,4.441,4.441,0,0,1,3.553,0,3.751,3.751,0,0,1,1.276.993,4.238,4.238,0,0,1,.769,1.429,5.634,5.634,0,0,1,0,3.36,4.229,4.229,0,0,1-.769,1.429,3.679,3.679,0,0,1-1.276.987,4.515,4.515,0,0,1-3.553,0,3.684,3.684,0,0,1-1.276-.987,4.235,4.235,0,0,1-.77-1.429,5.644,5.644,0,0,1,0-3.36Zm1.044,2.954a3.456,3.456,0,0,0,.524,1.13,2.684,2.684,0,0,0,.918.808,3.077,3.077,0,0,0,2.671,0,2.676,2.676,0,0,0,.918-.808,3.447,3.447,0,0,0,.525-1.13,4.927,4.927,0,0,0,0-2.546,3.449,3.449,0,0,0-.525-1.13,2.68,2.68,0,0,0-.918-.808,3.077,3.077,0,0,0-2.671,0,2.689,2.689,0,0,0-.918.808,3.458,3.458,0,0,0-.524,1.13,4.934,4.934,0,0,0,0,2.546Z" transform="translate(-1351.64 -158.185)" fill="#878787"/>
        <path id="Trazado_14531" data-name="Trazado 14531" d="M1379.178,158.711a4.234,4.234,0,0,1,3.028,1.005,4.026,4.026,0,0,1,1.061,3.061,6.9,6.9,0,0,1-.239,1.906,3.561,3.561,0,0,1-.739,1.4,3.2,3.2,0,0,1-1.275.867,5.1,5.1,0,0,1-1.836.3h-2.922v-8.538Zm.1,7.581a4.708,4.708,0,0,0,.478-.03,2.626,2.626,0,0,0,.607-.143,2.737,2.737,0,0,0,.638-.329,2.151,2.151,0,0,0,.567-.586,3.278,3.278,0,0,0,.411-.927,4.881,4.881,0,0,0,.161-1.345,5.735,5.735,0,0,0-.149-1.369,2.632,2.632,0,0,0-.489-1.028,2.141,2.141,0,0,0-.876-.646,3.484,3.484,0,0,0-1.324-.222h-1.907v6.624Z" transform="translate(-1366.717 -158.507)" fill="#878787"/>
        <path id="Trazado_14532" data-name="Trazado 14532" d="M1396.943,160.977a4.254,4.254,0,0,1,.769-1.429,3.757,3.757,0,0,1,1.276-.993,4.442,4.442,0,0,1,3.554,0,3.749,3.749,0,0,1,1.276.993,4.25,4.25,0,0,1,.77,1.429,5.636,5.636,0,0,1,0,3.36,4.241,4.241,0,0,1-.77,1.429,3.677,3.677,0,0,1-1.276.987,4.516,4.516,0,0,1-3.554,0,3.684,3.684,0,0,1-1.276-.987,4.244,4.244,0,0,1-.769-1.429,5.639,5.639,0,0,1,0-3.36Zm1.044,2.954a3.461,3.461,0,0,0,.524,1.13,2.68,2.68,0,0,0,.918.808,3.077,3.077,0,0,0,2.671,0,2.685,2.685,0,0,0,.918-.808,3.461,3.461,0,0,0,.524-1.13,4.937,4.937,0,0,0,0-2.546,3.463,3.463,0,0,0-.524-1.13,2.689,2.689,0,0,0-.918-.808,3.078,3.078,0,0,0-2.671,0,2.684,2.684,0,0,0-.918.808,3.463,3.463,0,0,0-.524,1.13,4.937,4.937,0,0,0,0,2.546Z" transform="translate(-1379.23 -158.185)" fill="#878787"/>
        <path id="Trazado_14533" data-name="Trazado 14533" d="M1422.478,158.711l4.484,6.924h.023v-6.924h1.074v8.538h-1.24l-4.448-6.852h-.024v6.852h-1.073v-8.538Z" transform="translate(-1394.289 -158.507)" fill="#878787"/>
        <path id="Trazado_14534" data-name="Trazado 14534" d="M1441.182,159.668v-.957h6.809v.957h-2.838v7.581h-1.133v-7.581Z" transform="translate(-1406.483 -158.507)" fill="#878787"/>
        <path id="Trazado_14535" data-name="Trazado 14535" d="M1460.206,160.977a4.251,4.251,0,0,1,.769-1.429,3.758,3.758,0,0,1,1.276-.993,4.442,4.442,0,0,1,3.554,0,3.756,3.756,0,0,1,1.276.993,4.252,4.252,0,0,1,.77,1.429,5.644,5.644,0,0,1,0,3.36,4.243,4.243,0,0,1-.77,1.429,3.684,3.684,0,0,1-1.276.987,4.516,4.516,0,0,1-3.554,0,3.686,3.686,0,0,1-1.276-.987,4.242,4.242,0,0,1-.769-1.429,5.636,5.636,0,0,1,0-3.36Zm1.044,2.954a3.451,3.451,0,0,0,.524,1.13,2.679,2.679,0,0,0,.918.808,3.077,3.077,0,0,0,2.671,0,2.686,2.686,0,0,0,.918-.808,3.463,3.463,0,0,0,.524-1.13,4.937,4.937,0,0,0,0-2.546,3.465,3.465,0,0,0-.524-1.13,2.69,2.69,0,0,0-.918-.808,3.077,3.077,0,0,0-2.671,0,2.683,2.683,0,0,0-.918.808,3.453,3.453,0,0,0-.524,1.13,4.927,4.927,0,0,0,0,2.546Z" transform="translate(-1417.978 -158.185)" fill="#878787"/>
        <path id="Trazado_14536" data-name="Trazado 14536" d="M1485.7,158.711v7.581h4.507v.957h-5.64v-8.538Z" transform="translate(-1433.055 -158.507)" fill="#878787"/>
        <path id="Trazado_14537" data-name="Trazado 14537" d="M1500.7,160.977a4.233,4.233,0,0,1,.769-1.429,3.752,3.752,0,0,1,1.276-.993,4.44,4.44,0,0,1,3.553,0,3.754,3.754,0,0,1,1.276.993,4.232,4.232,0,0,1,.769,1.429,5.634,5.634,0,0,1,0,3.36,4.223,4.223,0,0,1-.769,1.429,3.682,3.682,0,0,1-1.276.987,4.514,4.514,0,0,1-3.553,0,3.68,3.68,0,0,1-1.276-.987,4.223,4.223,0,0,1-.769-1.429,5.639,5.639,0,0,1,0-3.36Zm1.044,2.954a3.468,3.468,0,0,0,.524,1.13,2.681,2.681,0,0,0,.918.808,3.077,3.077,0,0,0,2.671,0,2.683,2.683,0,0,0,.918-.808,3.458,3.458,0,0,0,.524-1.13,4.916,4.916,0,0,0,0-2.546,3.46,3.46,0,0,0-.524-1.13,2.687,2.687,0,0,0-.918-.808,3.077,3.077,0,0,0-2.671,0,2.686,2.686,0,0,0-.918.808,3.47,3.47,0,0,0-.524,1.13,4.923,4.923,0,0,0,0,2.546Z" transform="translate(-1442.779 -158.185)" fill="#878787"/>
        <path id="Trazado_14538" data-name="Trazado 14538" d="M1529.528,166.826a4.032,4.032,0,0,1-1.491.292,3.964,3.964,0,0,1-1.7-.352,3.841,3.841,0,0,1-1.277-.951,4.154,4.154,0,0,1-.8-1.374,4.838,4.838,0,0,1-.274-1.615,6.058,6.058,0,0,1,.256-1.776,4.367,4.367,0,0,1,.763-1.477,3.714,3.714,0,0,1,1.264-1.01,3.93,3.93,0,0,1,1.771-.377,5.126,5.126,0,0,1,1.306.162,3.292,3.292,0,0,1,1.1.508,3.017,3.017,0,0,1,.811.879,3.468,3.468,0,0,1,.447,1.285h-1.133a2.229,2.229,0,0,0-.31-.843,2.015,2.015,0,0,0-.56-.581,2.492,2.492,0,0,0-.757-.34,3.474,3.474,0,0,0-.9-.114,2.591,2.591,0,0,0-2.236,1.13,3.58,3.58,0,0,0-.519,1.159,5.375,5.375,0,0,0-.166,1.333,4.3,4.3,0,0,0,.191,1.286,3.354,3.354,0,0,0,.56,1.088,2.744,2.744,0,0,0,.913.753,2.7,2.7,0,0,0,1.257.281,3.039,3.039,0,0,0,1.181-.215,2.438,2.438,0,0,0,1.4-1.477,2.913,2.913,0,0,0,.155-1.1h-2.719v-.956h3.733v4.5h-.716l-.3-1.064A2.841,2.841,0,0,1,1529.528,166.826Z" transform="translate(-1457.197 -158.185)" fill="#878787"/>
        <path id="Trazado_14539" data-name="Trazado 14539" d="M1558.367,158.711l3.326,8.538h-1.252l-.93-2.57h-3.6l-.953,2.57H1553.8l3.314-8.538Zm.786,5.011-1.419-3.983h-.023l-1.444,3.983Z" transform="translate(-1475.459 -158.507)" fill="#878787"/>
        <path id="Trazado_14540" data-name="Trazado 14540" d="M1588.885,158.711a2.8,2.8,0,0,1,1.9.6,2.064,2.064,0,0,1,.686,1.638,2.6,2.6,0,0,1-.353,1.363,1.816,1.816,0,0,1-1.127.8v.024a1.5,1.5,0,0,1,.6.239,1.329,1.329,0,0,1,.37.4,1.841,1.841,0,0,1,.2.52,5.548,5.548,0,0,1,.1.6q.024.31.036.633a5.508,5.508,0,0,0,.06.633,3.774,3.774,0,0,0,.137.593,1.459,1.459,0,0,0,.268.5h-1.264a.714.714,0,0,1-.161-.359,3.677,3.677,0,0,1-.054-.508q-.012-.28-.024-.6a4.218,4.218,0,0,0-.072-.634q-.048-.311-.119-.592a1.4,1.4,0,0,0-.227-.49,1.116,1.116,0,0,0-.405-.335,1.5,1.5,0,0,0-.668-.126h-2.766v3.647h-1.133v-8.538Zm.238,3.874a1.626,1.626,0,0,0,.626-.233,1.272,1.272,0,0,0,.429-.467,1.569,1.569,0,0,0,.16-.759,1.538,1.538,0,0,0-.357-1.052,1.466,1.466,0,0,0-1.157-.407h-2.814v2.977h2.361A4.551,4.551,0,0,0,1589.123,162.585Z" transform="translate(-1494.493 -158.507)" fill="#878787"/>
        <path id="Trazado_14541" data-name="Trazado 14541" d="M1611.835,158.711v.957h-4.746v2.714h4.424v.957h-4.424v2.953h4.782v.957h-5.914v-8.538Z" transform="translate(-1507.403 -158.507)" fill="#878787"/>
        <path id="Trazado_14542" data-name="Trazado 14542" d="M1628.247,159.555a2.4,2.4,0,0,0-1.449-.413,3.432,3.432,0,0,0-.7.072,1.876,1.876,0,0,0-.615.239,1.256,1.256,0,0,0-.43.448,1.4,1.4,0,0,0-.16.7.89.89,0,0,0,.233.64,1.71,1.71,0,0,0,.62.4,5.108,5.108,0,0,0,.876.257q.489.1,1,.222c.338.079.67.173,1,.281a3.28,3.28,0,0,1,.876.437,2.08,2.08,0,0,1,.62.694,2.431,2.431,0,0,1-.072,2.217,2.511,2.511,0,0,1-.781.79,3.411,3.411,0,0,1-1.067.442,5.178,5.178,0,0,1-1.174.137,4.97,4.97,0,0,1-1.354-.179,3.324,3.324,0,0,1-1.121-.544,2.57,2.57,0,0,1-.764-.933,3.008,3.008,0,0,1-.28-1.345h1.073a1.934,1.934,0,0,0,.209.927,1.905,1.905,0,0,0,.548.64,2.286,2.286,0,0,0,.793.37,3.611,3.611,0,0,0,.93.12,4.2,4.2,0,0,0,.769-.072,2.274,2.274,0,0,0,.7-.245,1.315,1.315,0,0,0,.691-1.238,1.075,1.075,0,0,0-.232-.718,1.722,1.722,0,0,0-.621-.449,4.557,4.557,0,0,0-.875-.281c-.327-.071-.659-.144-1-.221s-.67-.163-1-.263a3.6,3.6,0,0,1-.877-.395,1.771,1.771,0,0,1-.853-1.608,2.261,2.261,0,0,1,.263-1.118,2.284,2.284,0,0,1,.7-.778,3.124,3.124,0,0,1,.989-.455,4.379,4.379,0,0,1,1.139-.15,4.556,4.556,0,0,1,1.216.156,2.745,2.745,0,0,1,.983.491,2.365,2.365,0,0,1,.668.844,3.01,3.01,0,0,1,.268,1.213h-1.073A1.78,1.78,0,0,0,1628.247,159.555Z" transform="translate(-1518.145 -158.185)" fill="#878787"/>
        <path id="Trazado_14543" data-name="Trazado 14543" d="M1648.429,158.711a2.646,2.646,0,0,1,1.95.663,2.952,2.952,0,0,1,0,3.726,2.591,2.591,0,0,1-1.95.657h-2.6v3.492H1644.7v-8.538Zm-.381,4.089a2.018,2.018,0,0,0,1.413-.395,1.75,1.75,0,0,0,0-2.338,2.081,2.081,0,0,0-1.413-.4h-2.218V162.8Z" transform="translate(-1531.131 -158.507)" fill="#878787"/>
        <path id="Trazado_14544" data-name="Trazado 14544" d="M1663.662,160.977a4.243,4.243,0,0,1,.769-1.429,3.754,3.754,0,0,1,1.276-.993,4.441,4.441,0,0,1,3.553,0,3.755,3.755,0,0,1,1.276.993,4.238,4.238,0,0,1,.769,1.429,5.631,5.631,0,0,1,0,3.36,4.229,4.229,0,0,1-.769,1.429,3.683,3.683,0,0,1-1.276.987,4.515,4.515,0,0,1-3.553,0,3.682,3.682,0,0,1-1.276-.987,4.234,4.234,0,0,1-.769-1.429,5.634,5.634,0,0,1,0-3.36Zm1.044,2.954a3.457,3.457,0,0,0,.524,1.13,2.686,2.686,0,0,0,.918.808,3.077,3.077,0,0,0,2.671,0,2.68,2.68,0,0,0,.918-.808,3.449,3.449,0,0,0,.524-1.13,4.927,4.927,0,0,0,0-2.546,3.451,3.451,0,0,0-.524-1.13,2.684,2.684,0,0,0-.918-.808,3.077,3.077,0,0,0-2.671,0,2.69,2.69,0,0,0-.918.808,3.46,3.46,0,0,0-.524,1.13,4.92,4.92,0,0,0,0,2.546Z" transform="translate(-1542.59 -158.185)" fill="#878787"/>
        <path id="Trazado_14545" data-name="Trazado 14545" d="M1689.2,158.711l4.483,6.924h.024v-6.924h1.073v8.538h-1.24l-4.448-6.852h-.023v6.852h-1.073v-8.538Z" transform="translate(-1557.648 -158.507)" fill="#878787"/>
        <path id="Trazado_14546" data-name="Trazado 14546" d="M1713.728,159.555a2.4,2.4,0,0,0-1.449-.413,3.426,3.426,0,0,0-.7.072,1.88,1.88,0,0,0-.615.239,1.256,1.256,0,0,0-.429.448,1.392,1.392,0,0,0-.161.7.888.888,0,0,0,.233.64,1.713,1.713,0,0,0,.619.4,5.111,5.111,0,0,0,.876.257q.489.1,1,.222t1,.281a3.292,3.292,0,0,1,.877.437,2.07,2.07,0,0,1,.619.694,2.431,2.431,0,0,1-.071,2.217,2.51,2.51,0,0,1-.781.79,3.411,3.411,0,0,1-1.067.442,5.179,5.179,0,0,1-1.174.137,4.977,4.977,0,0,1-1.354-.179,3.319,3.319,0,0,1-1.12-.544,2.57,2.57,0,0,1-.764-.933,3.014,3.014,0,0,1-.28-1.345h1.073a1.931,1.931,0,0,0,.209.927,1.9,1.9,0,0,0,.548.64,2.287,2.287,0,0,0,.793.37,3.609,3.609,0,0,0,.93.12,4.206,4.206,0,0,0,.769-.072,2.267,2.267,0,0,0,.7-.245,1.316,1.316,0,0,0,.692-1.238,1.077,1.077,0,0,0-.233-.718,1.716,1.716,0,0,0-.621-.449,4.571,4.571,0,0,0-.875-.281c-.327-.071-.658-.144-1-.221s-.67-.163-1-.263a3.584,3.584,0,0,1-.876-.395,1.768,1.768,0,0,1-.853-1.608,2.258,2.258,0,0,1,.262-1.118,2.283,2.283,0,0,1,.7-.778,3.117,3.117,0,0,1,.989-.455,4.375,4.375,0,0,1,1.139-.15,4.552,4.552,0,0,1,1.215.156,2.744,2.744,0,0,1,.984.491,2.381,2.381,0,0,1,.668.844,3.03,3.03,0,0,1,.268,1.213h-1.074A1.777,1.777,0,0,0,1713.728,159.555Z" transform="translate(-1570.5 -158.185)" fill="#878787"/>
        <path id="Trazado_14547" data-name="Trazado 14547" d="M1732.161,158.711l3.327,8.538h-1.252l-.93-2.57h-3.6l-.953,2.57h-1.157l3.315-8.538Zm.787,5.011-1.42-3.983h-.023l-1.444,3.983Z" transform="translate(-1581.904 -158.507)" fill="#878787"/>
        <path id="Trazado_14548" data-name="Trazado 14548" d="M1753.206,158.711c.183,0,.379,0,.59.006s.419.016.627.036a4.638,4.638,0,0,1,.578.09,1.433,1.433,0,0,1,.458.18,2.207,2.207,0,0,1,.71.694,1.929,1.929,0,0,1,.292,1.088,2.087,2.087,0,0,1-.329,1.177,1.93,1.93,0,0,1-.935.735v.024a1.961,1.961,0,0,1,1.2.718,2.147,2.147,0,0,1,.418,1.339,2.551,2.551,0,0,1-.168.909,2.277,2.277,0,0,1-.495.784,2.478,2.478,0,0,1-.811.55,2.792,2.792,0,0,1-1.115.209h-4.114v-8.538Zm.31,3.671a2.227,2.227,0,0,0,1.39-.341,1.234,1.234,0,0,0,.423-1.022,1.513,1.513,0,0,0-.143-.718,1.018,1.018,0,0,0-.394-.407,1.544,1.544,0,0,0-.578-.185,5.52,5.52,0,0,0-.7-.042h-2.266v2.714Zm.572,3.91a1.626,1.626,0,0,0,1.175-.406,1.487,1.487,0,0,0,.424-1.124,1.4,1.4,0,0,0-.156-.693,1.2,1.2,0,0,0-.411-.437,1.742,1.742,0,0,0-.59-.227,3.55,3.55,0,0,0-.692-.066h-2.588v2.953Z" transform="translate(-1595.698 -158.507)" fill="#878787"/>
        <path id="Trazado_14549" data-name="Trazado 14549" d="M1772.329,158.711v7.581h4.508v.957h-5.64v-8.538Z" transform="translate(-1608.609 -158.507)" fill="#878787"/>
        <path id="Trazado_14550" data-name="Trazado 14550" d="M1794.183,158.711v.957h-4.746v2.714h4.424v.957h-4.424v2.953h4.783v.957H1788.3v-8.538Z" transform="translate(-1619.087 -158.507)" fill="#878787"/>
      </g>
      <g id="Grupo_4519" data-name="Grupo 4519" transform="translate(292.836 0.058)">
        <g id="Grupo_4518" data-name="Grupo 4518">
          <g id="Grupo_4515" data-name="Grupo 4515">
            <g id="Grupo_4514" data-name="Grupo 4514">
              <g id="Grupo_4512" data-name="Grupo 4512">
                <path id="Trazado_14551" data-name="Trazado 14551" d="M1813.662,61.716a4.076,4.076,0,0,1,4.092-4.064h0a4.069,4.069,0,0,1,4.073,4.064h0a4.1,4.1,0,0,1-4.073,4.108h0a4.105,4.105,0,0,1-4.092-4.108Zm.58,0a3.511,3.511,0,0,0,3.511,3.515h0a3.515,3.515,0,0,0,3.5-3.515h0a3.511,3.511,0,0,0-3.5-3.49h0a3.5,3.5,0,0,0-3.511,3.49Z" transform="translate(-1813.662 -57.652)" fill="#005990"/>
              </g>
              <g id="Grupo_4513" data-name="Grupo 4513" transform="translate(4.092 4.069)">
                <path id="Trazado_14552" data-name="Trazado 14552" d="M1824.221,68.151" transform="translate(-1824.221 -68.151)" fill="#005990"/>
              </g>
            </g>
          </g>
          <g id="Grupo_4517" data-name="Grupo 4517" transform="translate(2.154 1.692)">
            <g id="Grupo_4516" data-name="Grupo 4516">
              <path id="Trazado_14553" data-name="Trazado 14553" d="M1820.04,66.76h-.82V62.018h1.989a3.493,3.493,0,0,1,1.1.128,1.272,1.272,0,0,1,.582.465.943.943,0,0,1,.234.627.844.844,0,0,1-.165.542,1.5,1.5,0,0,1-.4.466,3.4,3.4,0,0,1-.811.36c.156.07.225.123.321.167.035.039.144.147.238.256s.187.234.264.321l1.032,1.409h-.979l-.875-1.262a2.6,2.6,0,0,0-.842-.781h-.865Zm0-2.53h.822a2.763,2.763,0,0,0,.8-.1,1.554,1.554,0,0,0,.434-.363.775.775,0,0,0,.155-.473.54.54,0,0,0-.146-.4.7.7,0,0,0-.356-.291,1.664,1.664,0,0,0-.828-.131h-.878Z" transform="translate(-1819.22 -62.018)" fill="#005990" fill-rule="evenodd"/>
            </g>
          </g>
        </g>
      </g>
      <path id="Trazado_14554" data-name="Trazado 14554" d="M1130.762,75.841s-26.862,2.991-42.85-9.679c0,0,11,20.408,42.85,9.679" transform="translate(-1076.32 -62.806)" fill="#878787"/>
      <path id="Trazado_14555" data-name="Trazado 14555" d="M1104.2,82.254c-14.875-1.387-20.478,4.362-25.924,1.573-3.288-1.686-5.819-6.446-9.406-10.426,0,0-.038-.038-.044-.044s-7.386-7.063-9.273-7.25c-4.343-.419,1.526,6.588,4.469,11.431a33.3,33.3,0,0,1,3.256,9.668c.624,4.551,2.975,9.113,6.837,9.453,3.84.337,8.1-1.341,10.694-2.876,5.083-3.007,17.049-6.732,26.263-5.106,7.213,1.271,12.28,3.416,13.267,2.613C1125.99,89.943,1118.26,83.565,1104.2,82.254Z" transform="translate(-1058 -62.761)" fill="#005990"/>
      <g id="Grupo_4520" data-name="Grupo 4520" transform="translate(176.465 0.458)">
        <path id="Trazado_14556" data-name="Trazado 14556" d="M1525.818,73.781l-3.917-1.242a4.448,4.448,0,0,1-3.421-4.575,4.64,4.64,0,0,1,1.539-3.673,4.933,4.933,0,0,1,3.82-1.457,5.207,5.207,0,0,1,4.822,5.3l-.013.482h4.362v-.469a9.269,9.269,0,0,0-2.658-6.62,8.91,8.91,0,0,0-6.478-2.842,9.244,9.244,0,0,0-6.685,2.651,8.343,8.343,0,0,0-2.8,6.516,8.491,8.491,0,0,0,6.141,8.494l3.451,1.07c3.725,1.181,5.573,3.14,5.653,5.986a5.988,5.988,0,0,1-6.089,6.115,5.61,5.61,0,0,1-4.131-1.862,5.956,5.956,0,0,1-1.687-4.339l.011-.48h-4.367l.007.476a10.253,10.253,0,0,0,3,7.391,10.155,10.155,0,0,0,17.349-7.232C1533.681,78.687,1531.02,75.426,1525.818,73.781Z" transform="translate(-1513.367 -58.684)" fill="#005990"/>
        <path id="Trazado_14557" data-name="Trazado 14557" d="M1595.092,84.082a12.716,12.716,0,0,0-9.077-4.137,12.137,12.137,0,0,0-9.49,3.825,13.613,13.613,0,0,0-.267,18.91,12.55,12.55,0,0,0,8.95,4.094c.161.005.32.008.48.008a12.17,12.17,0,0,0,8.851-3.709v3.138h4.113V93.355A12.327,12.327,0,0,0,1595.092,84.082Zm-.639,9a9.278,9.278,0,0,1-2.661,6.826,8,8,0,0,1-6.5,2.674,8.519,8.519,0,0,1-6.069-2.925,9.226,9.226,0,0,1-2.412-6.531,8.9,8.9,0,0,1,2.655-6.4,8.486,8.486,0,0,1,6.317-2.637,8.04,8.04,0,0,1,6.052,2.629A9.136,9.136,0,0,1,1594.454,93.084Z" transform="translate(-1549.628 -71.7)" fill="#005990"/>
        <path id="Trazado_14558" data-name="Trazado 14558" d="M1686.047,95.035a7.1,7.1,0,0,1-2.2,5.2,7.091,7.091,0,0,1-10.15,0,7.08,7.08,0,0,1-2.159-5.2V79.669h-4.336V94.634a12.027,12.027,0,0,0,3.265,8.578,11.163,11.163,0,0,0,8.324,3.443,10.971,10.971,0,0,0,8.279-3.443,11.881,11.881,0,0,0,3.31-8.578V79.669h-4.336Z" transform="translate(-1607.589 -71.537)" fill="#005990"/>
        <path id="Trazado_14559" data-name="Trazado 14559" d="M1757.31,58.7V70.477a12.484,12.484,0,0,0-8.561-3.681,12.161,12.161,0,0,0-9.484,3.884,13.72,13.72,0,0,0-.311,18.984,12.422,12.422,0,0,0,9.027,4.068q.252.009.5.009a13.283,13.283,0,0,0,13-13.461V58.7Zm-2.718,28.151a7.913,7.913,0,0,1-6.527,2.681h-.007a8.223,8.223,0,0,1-6.088-2.892,9.29,9.29,0,0,1-2.464-6.559,8.939,8.939,0,0,1,2.665-6.429A8.447,8.447,0,0,1,1748.358,71h.158a7.97,7.97,0,0,1,6.078,2.64,9.173,9.173,0,0,1,2.63,6.4A9.055,9.055,0,0,1,1754.592,86.847Z" transform="translate(-1649.292 -58.691)" fill="#005990"/>
        <rect id="Rectángulo_4745" data-name="Rectángulo 4745" width="1.133" height="8.538" transform="translate(13.63 38.762)" fill="#878787"/>
        <path id="Trazado_14560" data-name="Trazado 14560" d="M1548.138,154.434h.763l1.563-1.71h-1.3Z" transform="translate(-1534.664 -116.281)" fill="#868686"/>
        <rect id="Rectángulo_4746" data-name="Rectángulo 4746" width="4.292" height="34.895" transform="translate(52.094 0.106)" fill="#005990"/>
      </g>
    </g>
  </g>
</svg>
